HIERARCHY
ROOT Hips
{
	OFFSET 0.000000 0.000000 0.000000
	CHANNELS 6 Xposition Yposition Zposition Xrotation Yrotation Zrotation
	JOINT LeftUpLeg_virtual
	{
		OFFSET 0.000000 0.000000 0.000000
		CHANNELS 3 Xrotation Yrotation Zrotation
		JOINT LeftUpLeg
		{
			OFFSET 10.205400 -3.823500 0.155100
			CHANNELS 3 Xrotation Yrotation Zrotation
			JOINT LeftLeg
			{
				OFFSET 0.708757 -12.982077 0.567790
				CHANNELS 3 Xrotation Yrotation Zrotation
				JOINT LeftFoot
				{
					OFFSET -0.708756 -10.717838 -2.184338
					CHANNELS 3 Xrotation Yrotation Zrotation
					JOINT LeftToeBase
					{
						OFFSET 0.108149 -7.191104 7.560241
						CHANNELS 3 Xrotation Yrotation Zrotation
						JOINT LeftToe_End
						{
							OFFSET 0.070230 0.081724 4.490308
							CHANNELS 3 Xrotation Yrotation Zrotation
							End Site
							{
								OFFSET 0 0 0
							}
						}
					}
				}
			}
		}
	}
	JOINT RightUpLeg_virtual
	{
		OFFSET 0.000000 0.000000 0.000000
		CHANNELS 3 Xrotation Yrotation Zrotation
		JOINT RightUpLeg
		{
			OFFSET -10.205400 -3.823500 0.005500
			CHANNELS 3 Xrotation Yrotation Zrotation
			JOINT RightLeg
			{
				OFFSET -0.708756 -12.982134 0.610632
				CHANNELS 3 Xrotation Yrotation Zrotation
				JOINT RightFoot
				{
					OFFSET 0.708754 -10.717769 -1.945823
					CHANNELS 3 Xrotation Yrotation Zrotation
					JOINT RightToeBase
					{
						OFFSET -0.108140 -7.191069 7.372968
						CHANNELS 3 Xrotation Yrotation Zrotation
						JOINT RightToe_End
						{
							OFFSET -0.070227 0.081735 4.479403
							CHANNELS 3 Xrotation Yrotation Zrotation
							End Site
							{
								OFFSET 0 0 0
							}
						}
					}
				}
			}
		}
	}
	JOINT Spine_virtual
	{
		OFFSET 0.000000 0.000000 0.000000
		CHANNELS 3 Xrotation Yrotation Zrotation
		JOINT Spine
		{
			OFFSET 0.000000 6.876099 0.125700
			CHANNELS 3 Xrotation Yrotation Zrotation
			JOINT Spine1
			{
				OFFSET 0.000000 5.730043 0.104720
				CHANNELS 3 Xrotation Yrotation Zrotation
				JOINT Spine1_split
				{
					OFFSET 0.000000 5.730043 0.104720
					CHANNELS 3 Xrotation Yrotation Zrotation
					JOINT Spine2
					{
						OFFSET 0.000000 5.730043 0.104720
						CHANNELS 3 Xrotation Yrotation Zrotation
						JOINT Neck_virtual
						{
							OFFSET 0.000000 0.000000 0.000000
							CHANNELS 3 Xrotation Yrotation Zrotation
							JOINT Neck
							{
								OFFSET 0.000000 10.314075 0.188496
								CHANNELS 3 Xrotation Yrotation Zrotation
								JOINT Head
								{
									OFFSET 0.000000 7.643700 -2.377400
									CHANNELS 3 Xrotation Yrotation Zrotation
									JOINT HeadTop_End
									{
										OFFSET 0.000000 43.788605 -13.619600
										CHANNELS 3 Xrotation Yrotation Zrotation
										End Site
										{
											OFFSET 0 0 0
										}
									}
								}
							}
						}
						JOINT LeftShoulder_virtual
						{
							OFFSET 0.000000 0.000000 0.000000
							CHANNELS 3 Xrotation Yrotation Zrotation
							JOINT LeftShoulder
							{
								OFFSET 2.196100 4.412489 0.087492
								CHANNELS 3 Xrotation Yrotation Zrotation
								JOINT LeftShoulder_split
								{
									OFFSET 2.196100 4.412489 0.087492
									CHANNELS 3 Xrotation Yrotation Zrotation
									JOINT LeftArm
									{
										OFFSET 8.771219 -2.981674 -0.026999
										CHANNELS 3 Xrotation Yrotation Zrotation
										JOINT LeftForeArm
										{
											OFFSET 8.512804 0.000000 -0.000000
											CHANNELS 3 Xrotation Yrotation Zrotation
											JOINT LeftHand
											{
												OFFSET 18.484802 0.000000 -0.000000
												CHANNELS 3 Xrotation Yrotation Zrotation
												End Site
												{
													OFFSET 0 0 0
												}
											}
										}
									}
								}
							}
						}
						JOINT RightShoulder_virtual
						{
							OFFSET 0.000000 0.000000 0.000000
							CHANNELS 3 Xrotation Yrotation Zrotation
							JOINT RightShoulder
							{
								OFFSET -2.196100 4.412496 0.070690
								CHANNELS 3 Xrotation Yrotation Zrotation
								JOINT RightShoulder_split
								{
									OFFSET -2.196100 4.412496 0.070690
									CHANNELS 3 Xrotation Yrotation Zrotation
									JOINT RightArm
									{
										OFFSET -8.771282 -2.981682 -0.094208
										CHANNELS 3 Xrotation Yrotation Zrotation
										JOINT RightForeArm
										{
											OFFSET -8.494598 0.000000 0.000000
											CHANNELS 3 Xrotation Yrotation Zrotation
											JOINT RightHand
											{
												OFFSET -18.483803 0.000000 0.000001
												CHANNELS 3 Xrotation Yrotation Zrotation
												End Site
												{
													OFFSET 0 0 0
												}
											}
										}
									}
								}
							}
						}
					}
				}
			}
		}
	}
}
MOTION
Frames: 11
Frame Time: 0.03333333
0.610035 4.549982 -0.926472 0.000000 0.000000 0.000000 -90.546220 -3.121527 -1.377926 -21.040994 11.664450 -4.791987 33.467462 -10.558477 -8.916718 -3.097397 7.188682 7.360584 9.984487 -0.180828 2.828944 0.000000 0.000000 0.000000 -91.967678 -3.736735 -4.832656 0.318549 -6.862042 -6.340126 10.080075 3.696985 9.476242 5.644375 -6.313689 30.780510 -0.554470 -1.321045 1.017353 0.000000 0.000000 0.000000 -88.330950 -3.738102 -4.332129 4.601065 2.466642 0.984692 -1.176272 1.081715 -0.055550 0.389665 0.777104 -0.290890 0.000000 0.000000 0.000000 -1.862175 0.494068 0.238517 2.601378 0.862347 -0.191706 10.432626 -5.061754 10.256763 0.000000 0.000000 0.000000 -2.611040 1.081519 0.185054 0.993424 -13.948750 -3.591643 -2.783715 -0.036785 -4.107164 27.377772 0.144915 -68.999541 -178.856495 -39.077233 -178.212244 0.000000 0.000000 0.000000 -1.840169 0.778058 -0.740709 0.955823 1.999300 0.587677 1.206322 4.255667 0.262899 11.885376 7.193712 73.174275 -179.755785 46.358290 -179.324977 0.000000 0.000000 0.000000 
0.610239 4.549650 -0.926159 0.000000 0.000000 0.000000 -90.544963 -3.121760 -1.377833 -21.043628 11.662341 -4.793683 33.470321 -10.557387 -8.916457 -3.096277 7.189023 7.358496 9.984271 -0.181018 2.828150 0.000000 0.000000 0.000000 -91.964836 -3.734116 -4.828883 0.318590 -6.865698 -6.341328 10.076732 3.697431 9.477418 5.646292 -6.315297 30.778113 -0.556103 -1.321634 1.018111 0.000000 0.000000 0.000000 -88.330131 -3.739178 -4.334043 4.602405 2.466018 0.984246 -1.178159 1.081446 -0.055608 0.391016 0.784776 -0.292241 0.000000 0.000000 0.000000 -1.863530 0.493178 0.237900 2.597857 0.861738 -0.192457 10.434416 -5.061137 10.254099 0.000000 0.000000 0.000000 -2.614387 1.081779 0.184199 0.995398 -13.948607 -3.585212 -2.787059 -0.037070 -4.116464 27.380314 0.151368 -69.008311 -178.852451 -39.065646 -178.207832 0.000000 0.000000 0.000000 -1.841773 0.777822 -0.741193 0.953552 1.996568 0.583484 1.216224 4.261700 0.261500 11.893082 7.191291 73.173804 -179.756878 46.340614 -179.324977 0.000000 0.000000 0.000000 
0.610302 4.548992 -0.925631 0.000000 0.000000 0.000000 -90.542080 -3.121088 -1.377473 -21.049697 11.661171 -4.794751 33.478582 -10.555992 -8.916574 -3.096595 7.189211 7.358216 9.984332 -0.180955 2.828553 0.000000 0.000000 0.000000 -91.960362 -3.730317 -4.824419 0.317657 -6.872848 -6.342017 10.073283 3.695365 9.478792 5.646474 -6.321054 30.769797 -0.553833 -1.322617 1.020985 0.000000 0.000000 0.000000 -88.328430 -3.740839 -4.336800 4.602443 2.463458 0.985466 -1.180408 1.080879 -0.056878 0.390030 0.790530 -0.294174 0.000000 0.000000 0.000000 -1.863855 0.492827 0.236060 2.597021 0.863040 -0.190339 10.435267 -5.062205 10.255882 0.000000 0.000000 0.000000 -2.617580 1.082170 0.183354 0.998696 -13.948676 -3.564622 -2.788477 -0.035301 -4.124799 27.386265 0.164378 -69.026875 -178.847930 -39.048936 -178.204171 0.000000 0.000000 0.000000 -1.844204 0.777185 -0.742379 0.951258 1.990464 0.576248 1.228920 4.274187 0.261702 11.903252 7.191104 73.175122 -179.755225 46.323340 -179.324609 0.000000 0.000000 0.000000 
0.610297 4.548092 -0.925026 0.000000 0.000000 0.000000 -90.537702 -3.120409 -1.377105 -21.057127 11.660643 -4.795690 33.489753 -10.554317 -8.916295 -3.098424 7.189525 7.358811 9.983610 -0.180705 2.830184 0.000000 0.000000 0.000000 -91.954120 -3.725871 -4.819567 0.314703 -6.882688 -6.342739 10.070055 3.692695 9.480468 5.647030 -6.328780 30.759217 -0.548178 -1.323658 1.024798 0.000000 0.000000 0.000000 -88.326108 -3.742568 -4.339362 4.600488 2.459331 0.988129 -1.182908 1.079955 -0.058598 0.388986 0.793606 -0.294749 0.000000 0.000000 0.000000 -1.863088 0.493196 0.233824 2.598989 0.865988 -0.186458 10.433213 -5.066269 10.261907 0.000000 0.000000 0.000000 -2.620486 1.083010 0.183165 1.002230 -13.946859 -3.538051 -2.792118 -0.033896 -4.129520 27.392752 0.180037 -69.046833 -178.843941 -39.034681 -178.201015 0.000000 0.000000 0.000000 -1.847399 0.776421 -0.743589 0.949108 1.982493 0.568561 1.241418 4.289340 0.263183 11.914480 7.191115 73.174911 -179.750799 46.311357 -179.324718 0.000000 0.000000 0.000000 
0.610186 4.547073 -0.924572 0.000000 0.000000 0.000000 -90.531535 -3.120421 -1.376982 -21.063450 11.660219 -4.797047 33.500541 -10.552229 -8.915145 -3.102080 7.190033 7.360266 9.981370 -0.180358 2.832596 0.000000 0.000000 0.000000 -91.946402 -3.721653 -4.814676 0.309475 -6.894029 -6.343268 10.066691 3.691576 9.482181 5.648454 -6.336525 30.749754 -0.541746 -1.324712 1.028065 0.000000 0.000000 0.000000 -88.322747 -3.744311 -4.341072 4.596533 2.454308 0.992402 -1.185756 1.078946 -0.059876 0.390438 0.791618 -0.293741 0.000000 0.000000 0.000000 -1.861446 0.494483 0.232295 2.602433 0.870170 -0.182290 10.425551 -5.072256 10.270643 0.000000 0.000000 0.000000 -2.622680 1.084527 0.184123 1.005093 -13.939374 -3.515451 -2.797124 -0.035851 -4.134071 27.397420 0.193358 -69.058656 -178.841195 -39.026342 -178.198474 0.000000 0.000000 0.000000 -1.850652 0.775950 -0.744015 0.947278 1.975545 0.562629 1.250819 4.306909 0.263023 11.924370 7.190220 73.170048 -179.744132 46.305226 -179.325852 0.000000 0.000000 0.000000 
0.610133 4.546053 -0.924377 0.000000 0.000000 0.000000 -90.524199 -3.121139 -1.376800 -21.067310 11.659762 -4.799161 33.507583 -10.549173 -8.912966 -3.108060 7.190945 7.363554 9.979420 -0.179995 2.834686 0.000000 0.000000 0.000000 -91.938690 -3.718844 -4.810657 0.303557 -6.905514 -6.343359 10.063111 3.692583 9.483375 5.649747 -6.344325 30.742138 -0.535303 -1.325792 1.029950 0.000000 0.000000 0.000000 -88.318266 -3.746156 -4.341546 4.591098 2.449316 0.998241 -1.188989 1.078285 -0.059777 0.393776 0.786639 -0.290222 0.000000 0.000000 0.000000 -1.859202 0.496495 0.232385 2.605569 0.875135 -0.179171 10.411343 -5.080370 10.281009 0.000000 0.000000 0.000000 -2.624679 1.086926 0.186343 1.006144 -13.924275 -3.506851 -2.805622 -0.041937 -4.138383 27.399654 0.204795 -69.054565 -178.840307 -39.026854 -178.196152 0.000000 0.000000 0.000000 -1.853902 0.776070 -0.743225 0.946325 1.972684 0.559491 1.256895 4.325202 0.262510 11.931879 7.188427 73.159003 -179.736237 46.300824 -179.327887 0.000000 0.000000 0.000000 
0.610184 4.545023 -0.924528 0.000000 0.000000 0.000000 -90.517587 -3.123144 -1.377019 -21.068139 11.659135 -4.801796 33.508590 -10.545518 -8.910362 -3.115376 7.192269 7.368862 9.979060 -0.179638 2.835742 0.000000 0.000000 0.000000 -91.933267 -3.718464 -4.807898 0.297656 -6.915724 -6.343087 10.059651 3.694993 9.484024 5.650493 -6.352874 30.735677 -0.527577 -1.326992 1.030510 0.000000 0.000000 0.000000 -88.312775 -3.747817 -4.340304 4.585299 2.444688 1.005854 -1.192797 1.078223 -0.058219 0.399288 0.780332 -0.286064 0.000000 0.000000 0.000000 -1.856863 0.498957 0.233932 2.607186 0.880396 -0.178346 10.391803 -5.088910 10.290869 0.000000 0.000000 0.000000 -2.626473 1.089664 0.189511 1.004803 -13.902012 -3.516890 -2.812579 -0.046371 -4.140335 27.393891 0.218392 -69.033323 -178.841414 -39.035716 -178.193379 0.000000 0.000000 0.000000 -1.856657 0.776777 -0.741291 0.946235 1.974924 0.559215 1.263166 4.343743 0.262577 11.937117 7.190236 73.143731 -179.730049 46.295043 -179.328584 0.000000 0.000000 0.000000 
0.610244 4.543884 -0.925001 0.000000 0.000000 0.000000 -90.512950 -3.126113 -1.377046 -21.065915 11.658266 -4.804090 33.503413 -10.541336 -8.908317 -3.122644 7.194086 7.376340 9.980848 -0.179215 2.835419 0.000000 0.000000 0.000000 -91.931075 -3.721036 -4.807158 0.292122 -6.923239 -6.342723 10.058055 3.698188 9.484261 5.651257 -6.362432 30.729438 -0.518038 -1.328494 1.030296 0.000000 0.000000 0.000000 -88.306799 -3.749967 -4.337561 4.579706 2.440372 1.015252 -1.197142 1.078594 -0.055891 0.403180 0.773793 -0.285152 0.000000 0.000000 0.000000 -1.854583 0.501238 0.236163 2.606693 0.886143 -0.179271 10.370206 -5.098116 10.299827 0.000000 0.000000 0.000000 -2.627942 1.092377 0.192970 1.001504 -13.873236 -3.543728 -2.816385 -0.045317 -4.140291 27.376076 0.236643 -68.997225 -178.844556 -39.049411 -178.190579 0.000000 0.000000 0.000000 -1.858550 0.777547 -0.738945 0.947122 1.982350 0.560821 1.266021 4.362652 0.263650 11.942929 7.197725 73.128103 -179.727726 46.289654 -179.326166 0.000000 0.000000 0.000000 
0.610458 4.542511 -0.925837 0.000000 0.000000 0.000000 -90.510429 -3.129462 -1.376664 -21.061447 11.658368 -4.805690 33.493974 -10.536730 -8.907936 -3.128262 7.196604 7.385470 9.984196 -0.178684 2.834130 0.000000 0.000000 0.000000 -91.932229 -3.726106 -4.808260 0.287143 -6.927045 -6.342993 10.059508 3.702265 9.484744 5.653830 -6.372240 30.722870 -0.508845 -1.330125 1.029845 0.000000 0.000000 0.000000 -88.301471 -3.752733 -4.333715 4.574704 2.435969 1.026546 -1.201898 1.079145 -0.053607 0.405269 0.768351 -0.286588 0.000000 0.000000 0.000000 -1.852474 0.502807 0.238063 2.604830 0.892134 -0.180665 10.348811 -5.108534 10.308129 0.000000 0.000000 0.000000 -2.629696 1.094494 0.195935 0.997040 -13.840473 -3.582629 -2.822802 -0.034793 -4.139959 27.351214 0.255826 -68.952276 -178.849651 -39.066971 -178.188174 0.000000 0.000000 0.000000 -1.859807 0.777981 -0.737078 0.949149 1.994421 0.563616 1.264658 4.380870 0.266761 11.949454 7.209026 73.115884 -179.729926 46.289244 -179.320005 0.000000 0.000000 0.000000 
0.610712 4.541008 -0.926954 0.000000 0.000000 0.000000 -90.509630 -3.132365 -1.375636 -21.054951 11.659823 -4.806097 33.482236 -10.532399 -8.909751 -3.131994 7.199480 7.396242 9.986858 -0.178120 2.833087 0.000000 0.000000 0.000000 -91.935091 -3.732004 -4.810293 0.283186 -6.926748 -6.343830 10.061564 3.707680 9.485770 5.659255 -6.381294 30.715883 -0.503476 -1.331488 1.029192 0.000000 0.000000 0.000000 -88.297250 -3.756151 -4.329790 4.570731 2.430756 1.039637 -1.206879 1.079401 -0.052049 0.403311 0.766230 -0.287618 0.000000 0.000000 0.000000 -1.849940 0.503493 0.238963 2.602187 0.899597 -0.181888 10.328997 -5.118553 10.316026 0.000000 0.000000 0.000000 -2.631583 1.095817 0.198044 0.992590 -13.806666 -3.624396 -2.829464 -0.019725 -4.139484 27.328465 0.267807 -68.908399 -178.855866 -39.086734 -178.187095 0.000000 0.000000 0.000000 -1.860202 0.777679 -0.736426 0.951451 2.008961 0.565493 1.264060 4.397755 0.270530 11.954021 7.220295 73.108610 -179.736237 46.295036 -179.310825 0.000000 0.000000 0.000000 
0.611049 4.539455 -0.928392 0.000000 0.000000 0.000000 -90.509494 -3.134261 -1.374209 -21.046345 11.662376 -4.805177 33.468617 -10.528188 -8.913470 -3.135452 7.202711 7.410290 9.987622 -0.177549 2.833136 0.000000 0.000000 0.000000 -91.937003 -3.736523 -4.812030 0.281400 -6.923283 -6.345195 10.062774 3.714268 9.487667 5.667937 -6.389207 30.707462 -0.503828 -1.332170 1.028298 0.000000 0.000000 0.000000 -88.293924 -3.760439 -4.327060 4.567744 2.424467 1.054012 -1.211400 1.079246 -0.051310 0.401039 0.762058 -0.288838 0.000000 0.000000 0.000000 -1.846677 0.503437 0.239136 2.599667 0.908978 -0.181965 10.309665 -5.127372 10.323810 0.000000 0.000000 0.000000 -2.633942 1.096648 0.199250 0.989643 -13.774409 -3.659550 -2.835783 -0.007555 -4.140376 27.317900 0.267411 -68.872506 -178.860702 -39.107966 -178.187300 0.000000 0.000000 0.000000 -1.860442 0.776740 -0.737020 0.953765 2.023145 0.564990 1.266048 4.411088 0.274683 11.952826 7.226470 73.104601 -179.744310 46.305404 -179.301017 0.000000 0.000000 0.000000 
